<!DOCTYPE svg PUBLIC "-//W3C//DTD SVG 1.1//EN" "http://www.w3.org/Graphics/SVG/1.1/DTD/svg11.dtd">
<!-- Uploaded to: SVG Repo, www.svgrepo.com, Transformed by: SVG Repo Mixer Tools -->
<svg fill="#ffffff" height="256px" width="256px" version="1.1" id="Layer_1" xmlns="http://www.w3.org/2000/svg" xmlns:xlink="http://www.w3.org/1999/xlink" viewBox="-51.2 -51.2 614.40 614.40" enable-background="new 0 0 512 512" xml:space="preserve" stroke="#ffffff">
<g id="SVGRepo_bgCarrier" stroke-width="0"/>
<g id="SVGRepo_tracerCarrier" stroke-linecap="round" stroke-linejoin="round" stroke="#CCCCCC" stroke-width="57.34400000000001"/>
<g id="SVGRepo_iconCarrier"> <path d="M256,0C114.6,0,0,114.6,0,256s114.6,256,256,256s256-114.6,256-256S397.4,0,256,0z M405.3,277.3c0,11.8-9.5,21.3-21.3,21.3 h-85.3V384c0,11.8-9.5,21.3-21.3,21.3h-42.7c-11.8,0-21.3-9.6-21.3-21.3v-85.3H128c-11.8,0-21.3-9.6-21.3-21.3v-42.7 c0-11.8,9.5-21.3,21.3-21.3h85.3V128c0-11.8,9.5-21.3,21.3-21.3h42.7c11.8,0,21.3,9.6,21.3,21.3v85.3H384c11.8,0,21.3,9.6,21.3,21.3 V277.3z"/> </g>
</svg>